<svg width="24" height="24" viewBox="0 0 24 24" fill="none" xmlns="http://www.w3.org/2000/svg">
<path d="M20.0005 19V10.5C20.0005 10.3448 19.9643 10.1916 19.8949 10.0528C19.8255 9.91393 19.7247 9.79315 19.6005 9.7L12.6005 4.45C12.4274 4.32018 12.2169 4.25 12.0005 4.25C11.7841 4.25 11.5736 4.32018 11.4005 4.45L4.40049 9.7C4.27629 9.79315 4.17549 9.91393 4.10606 10.0528C4.03663 10.1916 4.00049 10.3448 4.00049 10.5V19C4.00049 19.2652 4.10585 19.5196 4.29338 19.7071C4.48092 19.8946 4.73527 20 5.00049 20H9.00049C9.2657 20 9.52006 19.8946 9.70759 19.7071C9.89513 19.5196 10.0005 19.2652 10.0005 19V16C10.0005 15.7348 10.1058 15.4804 10.2934 15.2929C10.4809 15.1054 10.7353 15 11.0005 15H13.0005C13.2657 15 13.5201 15.1054 13.7076 15.2929C13.8951 15.4804 14.0005 15.7348 14.0005 16V19C14.0005 19.2652 14.1058 19.5196 14.2934 19.7071C14.4809 19.8946 14.7353 20 15.0005 20H19.0005C19.2657 20 19.5201 19.8946 19.7076 19.7071C19.8951 19.5196 20.0005 19.2652 20.0005 19Z" stroke="#101922" stroke-width="1.7" stroke-linecap="round" stroke-linejoin="round"/>
</svg>
