<svg width="24" height="24" viewBox="0 0 24 24" fill="none" xmlns="http://www.w3.org/2000/svg">
<g id="&#236;&#185;&#180;&#237;&#133;&#140;&#234;&#179;&#160;&#235;&#166;&#172;_active" clip-path="url(#clip0_1474_8900)">
<g id="Group 3011">
<path id="Ellipse 5" d="M22.2518 10.8549C22.2518 15.7453 18.2873 19.7098 13.3969 19.7098C8.50646 19.7098 4.54199 15.7453 4.54199 10.8549C4.54199 5.96447 8.50646 2 13.3969 2C18.2873 2 22.2518 5.96447 22.2518 10.8549Z" stroke="#101922" stroke-width="2.12263"/>
<path id="Vector 13" d="M20.3619 23.623C20.71 24.0984 21.3739 24.205 21.8446 23.861C22.3154 23.517 22.4147 22.8528 22.0666 22.3773L20.3619 23.623ZM17.0881 19.1521L20.3619 23.623L22.0666 22.3773L18.7928 17.9065L17.0881 19.1521Z" fill="#101922"/>
<path id="Vector 14" d="M1 4.36084H6.90326" stroke="#101922" stroke-width="2.12263" stroke-linecap="round"/>
<path id="Vector 15" d="M1 18.5293H4.54196H8.08392" stroke="#101922" stroke-width="2.12263" stroke-linecap="round"/>
<path id="Vector 16" d="M1 11.4458H4.54196" stroke="#101922" stroke-width="2.12263" stroke-linecap="round"/>
</g>
</g>
<defs>
<clipPath id="clip0_1474_8900">
<rect width="24" height="24" fill="white"/>
</clipPath>
</defs>
</svg>
