<svg width="24" height="24" viewBox="0 0 24 24" fill="none" xmlns="http://www.w3.org/2000/svg">
<g clip-path="url(#clip0_1986_6395)">
<path d="M19.49 15.9199L22.78 20.2199" stroke="#7A8995" stroke-width="1.4" stroke-miterlimit="10" stroke-linecap="round"/>
<path d="M1.72006 12.0601H5.01006" stroke="#7A8995" stroke-width="1.4" stroke-miterlimit="10" stroke-linecap="round"/>
<path d="M1.72006 18.3501H9.61006" stroke="#7A8995" stroke-width="1.4" stroke-miterlimit="10" stroke-linecap="round"/>
<path d="M15.1901 16.77C19.3377 16.77 22.7001 13.4077 22.7001 9.26C22.7001 5.11234 19.3377 1.75 15.1901 1.75C11.0424 1.75 7.68005 5.11234 7.68005 9.26C7.68005 13.4077 11.0424 16.77 15.1901 16.77Z" stroke="#7A8995" stroke-width="1.4" stroke-miterlimit="10"/>
<path d="M5.60006 5.39998C4.26006 5.70998 3.83006 6.12998 3.56006 7.56998C3.53006 7.73998 3.21006 7.73998 3.18006 7.56998C2.91006 6.12998 2.47006 5.70998 1.14006 5.39998C0.950059 5.35998 0.950059 5.14998 1.14006 5.09998C2.48006 4.78998 2.91006 4.36998 3.18006 2.91998C3.21006 2.74998 3.52006 2.74998 3.56006 2.91998C3.83006 4.36998 4.26006 4.78998 5.60006 5.09998C5.79006 5.13998 5.79006 5.34998 5.60006 5.39998Z" fill="#7A8995"/>
<g clip-path="url(#clip1_1986_6395)">
<path d="M19.49 15.8799L22.78 20.1699" stroke="#101922" stroke-width="1.4" stroke-miterlimit="10" stroke-linecap="round"/>
<path d="M1.72 12.0098H5.01" stroke="#101922" stroke-width="1.4" stroke-miterlimit="10" stroke-linecap="round"/>
<path d="M1.72 18.2998H9.61" stroke="#101922" stroke-width="1.4" stroke-miterlimit="10" stroke-linecap="round"/>
<path d="M15.19 16.7202C19.3377 16.7202 22.7 13.3579 22.7 9.2102C22.7 5.06254 19.3377 1.7002 15.19 1.7002C11.0423 1.7002 7.67999 5.06254 7.67999 9.2102C7.67999 13.3579 11.0423 16.7202 15.19 16.7202Z" stroke="#101922" stroke-width="1.4" stroke-miterlimit="10"/>
<path d="M5.6 5.35018C4.26 5.66018 3.83 6.08018 3.56 7.52018C3.53 7.69018 3.21 7.69018 3.18 7.52018C2.91 6.08018 2.47 5.66018 1.14 5.35018C0.949998 5.31018 0.949998 5.10018 1.14 5.05018C2.48 4.74018 2.91 4.32018 3.18 2.87018C3.21 2.70018 3.52 2.70018 3.56 2.87018C3.83 4.32018 4.26 4.74018 5.6 5.05018C5.79 5.09018 5.79 5.30018 5.6 5.35018Z" fill="#101922"/>
</g>
</g>
<defs>
<clipPath id="clip0_1986_6395">
<rect width="24" height="24" fill="white"/>
</clipPath>
<clipPath id="clip1_1986_6395">
<rect width="22.48" height="19.87" fill="white" transform="translate(1 1)"/>
</clipPath>
</defs>
</svg>
