<svg width="22" height="21" viewBox="0 0 22 21" fill="none" xmlns="http://www.w3.org/2000/svg">
<g id="_?&#235;&#141;&#137;&#236;&#148;&#160;??1" clip-path="url(#clip0_1474_9113)">
<path id="Vector" d="M18.1364 17.4295L16.9647 14.7281C16.9013 14.5832 16.9224 14.4073 17.0069 14.2727C17.0913 14.1485 17.1652 14.0243 17.2391 13.9002C17.313 13.776 17.3764 13.6414 17.4397 13.5069C17.5136 13.362 17.6508 13.2585 17.8092 13.2274L20.7756 12.772C21.0501 12.772 21.2718 12.5443 21.2612 12.2752L21.1979 8.38364C21.1979 8.11454 20.9656 7.89719 20.6911 7.90754L17.7036 7.55565C17.5453 7.53495 17.3975 7.43145 17.3236 7.2969C17.1863 7.03815 17.0386 6.78975 16.8696 6.54135C16.7746 6.4068 16.7535 6.2412 16.8063 6.09631L17.8936 3.34323C18.0309 3.10518 17.9359 2.81538 17.7036 2.68083L14.2305 0.797144C13.9877 0.662595 13.6921 0.755744 13.5549 0.983443L11.7497 3.34323C11.6547 3.46742 11.4963 3.53987 11.3274 3.52952C11.0318 3.51917 10.7257 3.52952 10.4301 3.55022C10.2612 3.56057 10.1029 3.49847 9.99729 3.37428L8.10765 1.07659C7.97042 0.848894 7.66428 0.776444 7.43203 0.910993L4.0328 2.90853C3.80055 3.04308 3.72666 3.34323 3.86389 3.57092L5.03568 6.27225C5.09902 6.41715 5.0779 6.5931 4.99345 6.72765C4.909 6.85185 4.8351 6.97605 4.7612 7.10025C4.68731 7.22445 4.62397 7.359 4.56063 7.49355C4.48673 7.63844 4.3495 7.74194 4.19115 7.77299L1.22474 8.22839C0.950264 8.22839 0.728575 8.45609 0.739132 8.72519L0.802471 12.6168C0.802471 12.8859 1.03472 13.1032 1.30919 13.0929L4.29671 13.4448C4.45506 13.4655 4.60285 13.569 4.67675 13.7035C4.81399 13.9622 4.96178 14.2106 5.13069 14.459C5.2257 14.5936 5.24681 14.7592 5.19403 14.9041L4.10669 17.6572C3.96946 17.8952 4.06447 18.185 4.29671 18.3196L7.76984 20.2033C8.01264 20.3378 8.30823 20.2447 8.44547 20.017L10.2506 17.6572C10.3457 17.533 10.504 17.4605 10.6729 17.4709C10.9685 17.4812 11.2746 17.4709 11.5702 17.4502C11.7391 17.4398 11.8975 17.5019 12.003 17.6261L13.8927 19.9238C14.0299 20.1515 14.3361 20.224 14.5683 20.0894L17.9675 18.0919C18.1998 17.9573 18.2737 17.6572 18.1364 17.4295Z" stroke="#7A8995" stroke-width="1.4" stroke-miterlimit="10"/>
<path id="Vector_2" d="M11.0001 13.8379C12.8833 13.8379 14.4099 12.3412 14.4099 10.4949C14.4099 8.64858 12.8833 7.15186 11.0001 7.15186C9.11695 7.15186 7.59033 8.64858 7.59033 10.4949C7.59033 12.3412 9.11695 13.8379 11.0001 13.8379Z" stroke="#7A8995" stroke-width="1.4" stroke-miterlimit="10"/>
</g>
<defs>
<clipPath id="clip0_1474_9113">
<rect width="22" height="21" fill="white"/>
</clipPath>
</defs>
</svg>
