<svg width="20" height="20" viewBox="0 0 20 20" fill="none" xmlns="http://www.w3.org/2000/svg">
<g id="_?&#235;&#141;&#137;&#236;&#148;&#160;??1" clip-path="url(#clip0_1474_9263)">
<path id="Vector" d="M10 7.30371C8.66603 7.30371 7.57198 8.38816 7.57198 9.73173C7.57198 11.0753 8.65643 12.1598 10 12.1598C11.3436 12.1598 12.428 11.0753 12.428 9.73173C12.428 8.38816 11.3436 7.30371 10 7.30371Z" fill="#101922"/>
<path id="Vector_2" d="M19.9328 7.76356C19.9328 7.46606 19.8081 7.18775 19.5873 6.97661C19.3666 6.76548 19.0787 6.65991 18.8772 6.66951L16.286 6.35281C16.1804 6.15128 16.0653 5.95934 15.9405 5.777L16.8426 3.42575C17.1401 2.88832 16.9482 2.19734 16.4012 1.89984L13.263 0.143599C13.0038 -0.000354624 12.6967 -0.0387423 12.4088 0.04763C12.1209 0.134002 11.881 0.316344 11.785 0.508283L10.2111 2.60041C9.9904 2.60041 9.76008 2.60041 9.53935 2.61001L7.94626 0.652237C7.62956 0.124405 6.93858 -0.0483393 6.41075 0.268359L3.32054 2.12057C2.79271 2.43727 2.61996 3.12824 2.89827 3.5793L3.91555 5.97853C3.85797 6.0745 3.80038 6.17047 3.7428 6.26644C3.68522 6.36241 3.63724 6.46798 3.58925 6.56394L1.10365 6.95742C0.806142 6.95742 0.527831 7.08218 0.316699 7.30291C0.105566 7.51404 0 7.80195 0 8.09945L0.0575816 11.7079C0.0671785 12.3221 0.575816 12.8211 1.10365 12.8019L3.69482 13.1186C3.80038 13.3202 3.91555 13.5121 4.04031 13.6945L3.1382 16.0457C2.99424 16.3048 2.95585 16.6119 3.04223 16.8998C3.1286 17.1877 3.31094 17.4277 3.57965 17.5716L6.73704 19.3183C6.90979 19.4142 7.09213 19.4622 7.28407 19.4622C7.38964 19.4622 7.4952 19.443 7.59117 19.4142C7.87908 19.3279 8.119 19.1455 8.21497 18.9536L9.78887 16.8614C10.0096 16.8614 10.2399 16.8614 10.4607 16.8519L12.0537 18.8096C12.3704 19.3375 13.0614 19.5102 13.5893 19.1935L16.6795 17.3413C17.1977 17.0342 17.3704 16.372 17.0921 15.8538L16.0845 13.4833C16.142 13.3874 16.1996 13.2914 16.2572 13.1954C16.3148 13.0995 16.3628 12.9939 16.4107 12.8979L18.8964 12.5044C19.1939 12.5044 19.4722 12.3797 19.6833 12.159C19.8944 11.9478 20 11.6599 20 11.3624L19.9424 7.75396L19.9328 7.76356ZM10 13.5121C7.91747 13.5121 6.22841 11.8231 6.22841 9.74053C6.22841 7.65799 7.91747 5.96894 10 5.96894C12.0825 5.96894 13.7716 7.65799 13.7716 9.74053C13.7716 11.8231 12.0825 13.5121 10 13.5121Z" fill="#101922"/>
</g>
<defs>
<clipPath id="clip0_1474_9263">
<rect width="20" height="19.4722" fill="white"/>
</clipPath>
</defs>
</svg>
