<svg width="22" height="21" viewBox="0 0 22 21" fill="none" xmlns="http://www.w3.org/2000/svg">
<g id="_?&#235;&#141;&#137;&#236;&#148;&#160;??1" clip-path="url(#clip0_1474_9263)">
<path id="Vector" d="M10.9999 7.87646C9.53256 7.87646 8.3291 9.04601 8.3291 10.495C8.3291 11.944 9.522 13.1135 10.9999 13.1135C12.4779 13.1135 13.6708 11.944 13.6708 10.495C13.6708 9.04601 12.4779 7.87646 10.9999 7.87646Z" fill="#101922"/>
<path id="Vector_2" d="M21.9261 8.37304C21.9261 8.0522 21.7889 7.75205 21.5461 7.52435C21.3033 7.29665 20.9866 7.1828 20.7649 7.19315L17.9146 6.8516C17.7985 6.63425 17.6718 6.42726 17.5345 6.23061L18.5269 3.69488C18.8541 3.11528 18.643 2.37009 18.0413 2.04924L14.5893 0.155201C14.3042 -4.74143e-05 13.9664 -0.0414471 13.6497 0.0517022C13.333 0.144852 13.0691 0.3415 12.9635 0.548499L11.2322 2.80478C10.9894 2.80478 10.7361 2.80478 10.4933 2.81513L8.74088 0.703748C8.39251 0.134502 7.63244 -0.0517971 7.05182 0.28975L3.65259 2.28729C3.07198 2.62883 2.88196 3.37403 3.1881 3.86047L4.3071 6.44796C4.24376 6.55146 4.18042 6.65495 4.11708 6.75845C4.05374 6.86195 4.00096 6.9758 3.94818 7.0793L1.21401 7.50365C0.886756 7.50365 0.580614 7.6382 0.348369 7.87625C0.116123 8.10394 0 8.41444 0 8.73529L0.0633397 12.6269C0.0738963 13.2893 0.633397 13.8275 1.21401 13.8068L4.0643 14.1483C4.18042 14.3657 4.3071 14.5726 4.44434 14.7693L3.45202 17.305C3.29367 17.5845 3.25144 17.9157 3.34645 18.2262C3.44146 18.5367 3.64203 18.7954 3.93762 18.9507L7.41075 20.8344C7.60077 20.9379 7.80134 20.9896 8.01248 20.9896C8.1286 20.9896 8.24472 20.9689 8.35029 20.9379C8.66699 20.8447 8.9309 20.6481 9.03647 20.4411L10.7678 18.1848C11.0106 18.1848 11.2639 18.1848 11.5067 18.1744L13.2591 20.2858C13.6075 20.8551 14.3676 21.0414 14.9482 20.6998L18.3474 18.7023C18.9175 18.3711 19.1075 17.6569 18.8013 17.098L17.6929 14.5416C17.7562 14.4381 17.8196 14.3346 17.8829 14.2311C17.9463 14.1276 17.999 14.0138 18.0518 13.9103L20.786 13.4859C21.1132 13.4859 21.4194 13.3514 21.6516 13.1133C21.8839 12.8856 22 12.5751 22 12.2543L21.9367 8.36269L21.9261 8.37304ZM11 14.5726C8.70921 14.5726 6.85125 12.7511 6.85125 10.5051C6.85125 8.25919 8.70921 6.43761 11 6.43761C13.2908 6.43761 15.1488 8.25919 15.1488 10.5051C15.1488 12.7511 13.2908 14.5726 11 14.5726Z" fill="#101922"/>
</g>
<defs>
<clipPath id="clip0_1474_9263">
<rect width="22" height="21" fill="white"/>
</clipPath>
</defs>
</svg>
