<svg width="24" height="24" viewBox="0 0 24 24" fill="none" xmlns="http://www.w3.org/2000/svg">
<g id="&#236;&#132;&#164;&#236;&#160;&#149;_active">
<g id="Group 3602">
<path id="Vector" d="M18.1542 18.4872L17.1671 15.9812C17.1138 15.8468 17.1349 15.6849 17.211 15.5621C17.2869 15.4489 17.3536 15.3355 17.4203 15.2221C17.4869 15.1087 17.5445 14.9856 17.6021 14.8625C17.669 14.7301 17.7909 14.6367 17.9303 14.6103L20.5385 14.233C20.7792 14.237 20.9771 14.0303 20.9718 13.7822L20.9747 10.1952C20.9788 9.9472 20.7784 9.74359 20.5375 9.74921L17.9228 9.38225C17.7843 9.36091 17.6562 9.26343 17.5935 9.13838C17.477 8.89799 17.3511 8.66697 17.2067 8.43566C17.1254 8.31032 17.1094 8.15741 17.1579 8.02464L18.1527 5.5032C18.2767 5.2858 18.1977 5.01739 17.996 4.89009L14.9785 3.10464C14.7676 2.97718 14.507 3.0588 14.3832 3.26666L12.7647 5.41542C12.6796 5.52852 12.5396 5.59302 12.3916 5.58107C12.1326 5.5673 11.8639 5.57247 11.6044 5.58732C11.4561 5.59444 11.3182 5.53496 11.2275 5.419L9.60486 3.27468C9.48793 3.06289 9.22054 2.99175 9.01485 3.11242L6.00389 4.9046C5.7982 5.02527 5.72889 5.3008 5.84582 5.51258L6.83287 8.01862C6.88624 8.15305 6.86508 8.31488 6.789 8.43766C6.71308 8.55091 6.64641 8.6643 6.57974 8.77769C6.51307 8.89109 6.4555 9.01417 6.39794 9.13725C6.33096 9.26972 6.20905 9.36314 6.06972 9.38949L3.46147 9.76676C3.22077 9.76284 3.02294 9.96949 3.02816 10.2176L3.02528 13.8046C3.02124 14.0526 3.22165 14.2562 3.4625 14.2506L6.07715 14.6176C6.21571 14.6389 6.34376 14.7364 6.40654 14.8614C6.52301 15.1018 6.64889 15.3328 6.79328 15.5641C6.87458 15.6895 6.89061 15.8424 6.84215 15.9752L5.84727 18.4966C5.72335 18.714 5.80232 18.9824 6.00397 19.1097L9.02147 20.8952C9.23238 21.0226 9.493 20.941 9.61676 20.7331L11.2353 18.5844C11.3204 18.4713 11.4604 18.4068 11.6084 18.4187C11.8674 18.4325 12.1361 18.4273 12.3956 18.4125C12.5439 18.4054 12.6818 18.4648 12.7725 18.5808L14.3951 20.7251C14.5121 20.9369 14.7795 21.008 14.9851 20.8874L17.9961 19.0952C18.2018 18.9745 18.2711 18.699 18.1542 18.4872Z" fill="#101922" stroke="#101922" stroke-width="1.4" stroke-miterlimit="10"/>
<path id="Vector_2" d="M11.9512 14.9992C13.6078 15.0262 14.9726 13.7051 14.9996 12.0485C15.0266 10.3919 13.7055 9.02703 12.0489 9.00004C10.3923 8.97305 9.02741 10.2941 9.00042 11.9508C8.97343 13.6074 10.2945 14.9723 11.9512 14.9992Z" stroke="white" stroke-width="1.4" stroke-miterlimit="10"/>
</g>
</g>
</svg>
