<svg width="18" height="18" viewBox="0 0 18 18" fill="none" xmlns="http://www.w3.org/2000/svg">
<g id="Layer_1" clip-path="url(#clip0_1986_6176)">
<path id="Vector" d="M9 17.5502C13.722 17.5502 17.55 13.7222 17.55 9.0002C17.55 4.27816 13.722 0.450195 9 0.450195C4.27796 0.450195 0.449997 4.27816 0.449997 9.0002C0.449997 13.7222 4.27796 17.5502 9 17.5502Z" stroke="#0085FF" stroke-width="0.9" stroke-miterlimit="10"/>
<path id="Vector_2" d="M9.00001 13.5856C9.49706 13.5856 9.90001 13.1827 9.90001 12.6856C9.90001 12.1886 9.49706 11.7856 9.00001 11.7856C8.50295 11.7856 8.10001 12.1886 8.10001 12.6856C8.10001 13.1827 8.50295 13.5856 9.00001 13.5856Z" fill="#0085FF"/>
<path id="Vector_3" d="M9.216 10.9348H8.784C8.5455 10.9348 8.352 10.7413 8.352 10.5028L7.92 4.85534C7.92 4.61684 8.1135 4.42334 8.352 4.42334H9.648C9.8865 4.42334 10.08 4.61684 10.08 4.85534L9.648 10.5028C9.648 10.7413 9.4545 10.9348 9.216 10.9348Z" fill="#0085FF"/>
</g>
<defs>
<clipPath id="clip0_1986_6176">
<rect width="18" height="18" fill="white"/>
</clipPath>
</defs>
</svg>
