<svg width="76" height="35" viewBox="0 0 76 35" fill="none" xmlns="http://www.w3.org/2000/svg">
<path d="M12 23V21.28L17.42 14.04V14.28H12V12.5H19.66V14.18L14.32 21.32L14.24 21.22H19.78V23H12ZM26.0322 23.2C24.9522 23.2 23.9922 22.9733 23.1522 22.52C22.3255 22.0533 21.6722 21.42 21.1922 20.62C20.7255 19.82 20.4922 18.9 20.4922 17.86C20.4922 17.0333 20.6255 16.28 20.8922 15.6C21.1589 14.92 21.5255 14.3333 21.9922 13.84C22.4722 13.3333 23.0389 12.9467 23.6922 12.68C24.3589 12.4 25.0789 12.26 25.8522 12.26C26.5322 12.26 27.1655 12.3933 27.7522 12.66C28.3389 12.9133 28.8455 13.2667 29.2722 13.72C29.7122 14.1733 30.0455 14.7133 30.2722 15.34C30.5122 15.9533 30.6255 16.6267 30.6122 17.36L30.5922 18.24H22.0122L21.5522 16.6H28.8122L28.5122 16.94V16.46C28.4722 16.02 28.3255 15.6267 28.0722 15.28C27.8189 14.9333 27.4989 14.66 27.1122 14.46C26.7255 14.26 26.3055 14.16 25.8522 14.16C25.1322 14.16 24.5255 14.3 24.0322 14.58C23.5389 14.8467 23.1655 15.2467 22.9122 15.78C22.6589 16.3 22.5322 16.9467 22.5322 17.72C22.5322 18.4533 22.6855 19.0933 22.9922 19.64C23.2989 20.1733 23.7322 20.5867 24.2922 20.88C24.8522 21.1733 25.4989 21.32 26.2322 21.32C26.7522 21.32 27.2322 21.2333 27.6722 21.06C28.1255 20.8867 28.6122 20.5733 29.1322 20.12L30.1722 21.58C29.8522 21.9 29.4589 22.18 28.9922 22.42C28.5389 22.66 28.0522 22.8533 27.5322 23C27.0255 23.1333 26.5255 23.2 26.0322 23.2ZM33.3509 23V9.82H35.4109V23H33.3509ZM31.1709 14.5V12.5H37.8509V14.5H31.1709ZM40.1267 23V12.5H42.2067V15.8L42.0067 15C42.1534 14.4933 42.4001 14.0333 42.7467 13.62C43.1067 13.2067 43.5134 12.88 43.9667 12.64C44.4334 12.4 44.9134 12.28 45.4067 12.28C45.6334 12.28 45.8467 12.3 46.0467 12.34C46.2601 12.38 46.4267 12.4267 46.5467 12.48L46.0067 14.72C45.8467 14.6533 45.6667 14.6 45.4667 14.56C45.2801 14.5067 45.0934 14.48 44.9067 14.48C44.5467 14.48 44.2001 14.5533 43.8667 14.7C43.5467 14.8333 43.2601 15.0267 43.0067 15.28C42.7667 15.52 42.5734 15.8067 42.4267 16.14C42.2801 16.46 42.2067 16.8133 42.2067 17.2V23H40.1267ZM50.3531 27.6L52.4731 22.7L52.4931 24.34L47.2531 12.5H49.6531L52.9331 20.22C52.9998 20.3533 53.0798 20.56 53.1731 20.84C53.2665 21.1067 53.3465 21.3733 53.4131 21.64L52.8931 21.76C52.9998 21.48 53.0998 21.2 53.1931 20.92C53.2998 20.64 53.3998 20.36 53.4931 20.08L56.2331 12.5H58.6731L54.3531 23L52.5731 27.6H50.3531Z" fill="#101922"/>
<g clip-path="url(#clip0_1797_6465)">
<path d="M65.7557 8.30227C63.5049 8.93199 62.7717 9.78841 62.3087 12.7355C62.2573 13.0882 61.7299 13.0882 61.6656 12.7355C61.2026 9.78841 60.4824 8.93199 58.2187 8.30227C57.91 8.21411 57.91 7.78589 58.2187 7.69773C60.4695 7.06801 61.2026 6.21159 61.6656 3.26448C61.7171 2.91184 62.2444 2.91184 62.3087 3.26448C62.7717 6.21159 63.492 7.06801 65.7557 7.69773C66.0644 7.78589 66.0644 8.21411 65.7557 8.30227Z" fill="#0085FF"/>
</g>
<defs>
<clipPath id="clip0_1797_6465">
<rect width="8" height="10" fill="white" transform="translate(58 3)"/>
</clipPath>
</defs>
</svg>
