<svg width="24" height="24" viewBox="0 0 24 24" fill="none" xmlns="http://www.w3.org/2000/svg">
<g id="&#236;&#185;&#180;&#237;&#133;&#140;&#234;&#179;&#160;&#235;&#166;&#172;_disabled" clip-path="url(#clip0_1474_8881)">
<g id="Group 3011">
<path id="Ellipse 5" d="M22.9998 10.1906C22.9998 15.2532 18.8958 19.3572 13.8332 19.3572C8.77056 19.3572 4.6665 15.2532 4.6665 10.1906C4.6665 5.12798 8.77056 1.02393 13.8332 1.02393C18.8958 1.02393 22.9998 5.12798 22.9998 10.1906Z" stroke="#7A8995" stroke-width="1.4"/>
<path id="Vector 13" d="M21.364 23.1743C21.5936 23.4879 22.0315 23.5582 22.342 23.3313C22.6524 23.1044 22.718 22.6663 22.4884 22.3527L21.364 23.1743ZM17.9749 18.546L21.364 23.1743L22.4884 22.3527L19.0993 17.7245L17.9749 18.546Z" fill="#7A8995"/>
<path id="Vector 14" d="M1 3.46777H7.11111" stroke="#7A8995" stroke-width="1.4" stroke-linecap="round"/>
<path id="Vector 15" d="M1 18.1353H4.66666H8.33333" stroke="#7A8995" stroke-width="1.4" stroke-linecap="round"/>
<path id="Vector 16" d="M1 10.8022H4.66666" stroke="#7A8995" stroke-width="1.4" stroke-linecap="round"/>
</g>
</g>
<defs>
<clipPath id="clip0_1474_8881">
<rect width="24" height="24" fill="white"/>
</clipPath>
</defs>
</svg>
