<svg width="24" height="24" viewBox="0 0 24 24" fill="none" xmlns="http://www.w3.org/2000/svg">
<g id="&#236;&#185;&#180;&#237;&#133;&#140;&#234;&#179;&#160;&#235;&#166;&#172;_disabled">
<g id="Group 3011">
<path id="Ellipse 5" d="M21 10.5C21 14.6421 17.6421 18 13.5 18C9.35786 18 6 14.6421 6 10.5C6 6.35786 9.35786 3 13.5 3C17.6421 3 21 6.35786 21 10.5Z" stroke="#7A8995" stroke-width="1.4"/>
<path id="Vector 13" d="M19.5591 21.1976C19.7887 21.5111 20.2266 21.5814 20.537 21.3545C20.8475 21.1277 20.9131 20.6896 20.6835 20.376L19.5591 21.1976ZM16.7862 17.4108L19.5591 21.1976L20.6835 20.376L17.9106 16.5892L16.7862 17.4108Z" fill="#7A8995"/>
<path id="Vector 14" d="M3 5H8" stroke="#7A8995" stroke-width="1.4" stroke-linecap="round"/>
<path id="Vector 15" d="M3 17H6H9" stroke="#7A8995" stroke-width="1.4" stroke-linecap="round"/>
<path id="Vector 16" d="M3 11H6" stroke="#7A8995" stroke-width="1.4" stroke-linecap="round"/>
</g>
</g>
</svg>
