<svg width="24" height="24" viewBox="0 0 24 24" fill="none" xmlns="http://www.w3.org/2000/svg">
<path d="M12 7C13.1046 7 14 6.10457 14 5C14 3.89543 13.1046 3 12 3C10.8954 3 10 3.89543 10 5C10 6.10457 10.8954 7 12 7Z" stroke="#101922" stroke-width="1.6"/>
<path d="M4 8C4 8 6.4689 8.17843 8 8.5C9.67551 8.8519 12 9.84615 12 9.84615V14.9231V20C12 20 9.67551 18.8518 8 18.4999C6.4689 18.1783 4 18.1538 4 18.1538V8Z" stroke="#101922" stroke-width="1.6" stroke-linejoin="round"/>
<path d="M20 8C20 8 17.5311 8.17843 16 8.5C14.3245 8.8519 12 9.84615 12 9.84615V14.9231V20C12 20 14.3245 18.8518 16 18.4999C17.5311 18.1783 20 18.1538 20 18.1538V8Z" stroke="#101922" stroke-width="1.6" stroke-linejoin="round"/>
</svg>
