<svg width="14" height="14" viewBox="0 0 14 14" fill="none" xmlns="http://www.w3.org/2000/svg">
<g id="arrow.3.trianglepath">
<g id="Group">
<path id="Vector" d="M4.15278 9.18265C4.40274 9.12391 4.54558 8.88898 4.47416 8.64228L3.97424 6.68632C3.92068 6.4925 3.83736 6.35742 3.68262 6.2693C3.52788 6.17532 3.37315 6.16946 3.1708 6.2282L1.21278 6.77443C0.950912 6.84491 0.81998 7.08574 0.891397 7.32071C0.956863 7.56741 1.20087 7.71422 1.45083 7.63202L3.1827 7.12684L3.5993 8.85961C3.65286 9.11218 3.90877 9.24726 4.15278 9.18265ZM2.42092 12.466H5.61088C5.8906 12.466 6.09892 12.2722 6.09892 12.0079C6.09892 11.7436 5.8906 11.5438 5.61088 11.5438H2.42687C2.01622 11.5438 1.74245 11.2091 1.74245 10.8449C1.74245 10.7392 1.7603 10.61 1.82577 10.4984L3.89092 6.85082L3.08153 6.38093L0.998523 10.0461C0.855689 10.3045 0.77832 10.5806 0.77832 10.8449C0.77832 11.7553 1.40917 12.466 2.42092 12.466ZM9.76498 6.23993L10.5744 5.7759L8.41403 1.9639C8.11049 1.42352 7.55703 1.14746 7.00351 1.14746C6.44406 1.14746 5.89654 1.4294 5.58708 1.9639L3.94449 4.85963C3.78975 5.12396 3.87307 5.37653 4.10517 5.51161C4.34323 5.64082 4.62295 5.55857 4.75983 5.32365L6.40242 2.41618C6.53933 2.18123 6.77142 2.08138 7.00351 2.08138C7.2356 2.08138 7.4618 2.18123 7.59273 2.41618L9.76498 6.23993ZM9.84832 6.38093C10.0506 6.43375 10.2054 6.43375 10.3601 6.33978C10.5149 6.2458 10.5982 6.12245 10.6517 5.92276L11.1457 3.96683C11.2171 3.72013 11.0803 3.48518 10.8303 3.42645C10.5863 3.36184 10.3304 3.49693 10.2768 3.7495L9.8602 5.48224L8.12237 4.9771C7.8784 4.90074 7.63437 5.04171 7.56297 5.28841C7.4975 5.52334 7.62843 5.76417 7.88434 5.83465L9.84832 6.38093ZM7.36658 12.466H11.5802C12.5919 12.466 13.2228 11.7553 13.2228 10.8449C13.2228 10.5806 13.1514 10.3104 13.0026 10.0461L11.4254 7.26784C11.2885 7.01527 11.0088 6.95653 10.7827 7.09161C10.5506 7.22674 10.4732 7.50276 10.6042 7.73773L12.1694 10.4984C12.2348 10.61 12.2646 10.7392 12.2646 10.8449C12.2646 11.2091 11.9789 11.5438 11.5683 11.5438H7.36658V12.466ZM8.65206 13.864C8.83657 14.052 9.11629 14.0402 9.28886 13.864C9.47337 13.6936 9.47337 13.4117 9.28292 13.2296L7.97362 12.0079L9.28292 10.7862C9.47337 10.6041 9.47337 10.3221 9.28886 10.1518C9.11629 9.96972 8.83657 9.96385 8.65206 10.1518L7.18802 11.5498C7.03922 11.6907 6.97375 11.8317 6.97375 12.0079C6.97375 12.1841 7.03922 12.3192 7.18802 12.4602L8.65206 13.864Z" fill="white"/>
</g>
</g>
</svg>
