<svg width="52" height="52" viewBox="0 0 52 52" fill="none" xmlns="http://www.w3.org/2000/svg">
<g id="! icon" clip-path="url(#clip0_1179_8056)">
<g id="Group">
<path id="Vector" d="M44.9167 26C44.9167 36.3241 36.3423 44.9167 26 44.9167C15.6768 44.9167 7.08333 36.3234 7.08333 26C7.08333 15.6565 15.6578 7.08333 25.9804 7.08333C36.3247 7.08333 44.9167 15.6585 44.9167 26Z" stroke="#0085FF" stroke-width="2.16667"/>
</g>
<g id="Group 3606">
<g id="Group 3607">
<path id="Vector_2" d="M26.5 36.5713C27.8807 36.5713 29 35.452 29 34.0713C29 32.6906 27.8807 31.5713 26.5 31.5713C25.1193 31.5713 24 32.6906 24 34.0713C24 35.452 25.1193 36.5713 26.5 36.5713Z" fill="#0085FF"/>
<path id="Rectangle 13092" d="M24.092 18.4983C24.0418 17.1337 25.1344 16 26.5 16C27.8656 16 28.9582 17.1337 28.908 18.4983L28.5628 27.8673C28.5277 28.8185 27.7465 29.5714 26.7948 29.5714H26.2052C25.2535 29.5714 24.4723 28.8185 24.4372 27.8673L24.092 18.4983Z" fill="#0085FF"/>
</g>
</g>
</g>
<defs>
<clipPath id="clip0_1179_8056">
<rect width="52" height="52" fill="white"/>
</clipPath>
</defs>
</svg>
