<svg width="40" height="40" viewBox="0 0 40 40" fill="none" xmlns="http://www.w3.org/2000/svg">
<g id="Layer_1" clip-path="url(#clip0_1986_6191)">
<path id="Vector" d="M20 39C30.4934 39 39 30.4934 39 20C39 9.50659 30.4934 1 20 1C9.50659 1 1 9.50659 1 20C1 30.4934 9.50659 39 20 39Z" stroke="#0085FF" stroke-width="2" stroke-miterlimit="10"/>
<path id="Vector_2" d="M20 30.1899C21.1046 30.1899 22 29.2945 22 28.1899C22 27.0854 21.1046 26.1899 20 26.1899C18.8954 26.1899 18 27.0854 18 28.1899C18 29.2945 18.8954 30.1899 20 30.1899Z" fill="#0085FF"/>
<path id="Vector_3" d="M20.48 24.3001H19.52C18.99 24.3001 18.56 23.8701 18.56 23.3401L17.6 10.7901C17.6 10.2601 18.03 9.83008 18.56 9.83008H21.44C21.97 9.83008 22.4 10.2601 22.4 10.7901L21.44 23.3401C21.44 23.8701 21.01 24.3001 20.48 24.3001Z" fill="#0085FF"/>
</g>
<defs>
<clipPath id="clip0_1986_6191">
<rect width="40" height="40" fill="white"/>
</clipPath>
</defs>
</svg>
