<svg width="24" height="24" viewBox="0 0 24 24" fill="none" xmlns="http://www.w3.org/2000/svg">
<g id="! icon" clip-path="url(#clip0_1190_16051)">
<g id="Group">
<path id="Vector" d="M20.5 12C20.5 16.6389 16.6471 20.5 12 20.5C7.36144 20.5 3.5 16.6386 3.5 12C3.5 7.3523 7.35294 3.5 11.9912 3.5C16.6392 3.5 20.5 7.35325 20.5 12Z" stroke="#0085FF"/>
</g>
<path id="Vector_2" d="M12.2732 12.9654C11.6826 12.9654 11.3675 12.6554 11.3544 12.0848L11.1969 8.02942C11.1706 7.42174 11.6301 7 12.2601 7C12.8902 7 13.3627 7.43412 13.3364 8.0418L13.1789 12.0848C13.1527 12.6678 12.8376 12.9654 12.2732 12.9654ZM12.2601 16.5C11.5906 16.5 11 15.9791 11 15.3466C11 14.7141 11.5775 14.1932 12.2601 14.1932C12.9558 14.1932 13.5333 14.7017 13.5333 15.3466C13.5333 15.9915 12.9427 16.5 12.2601 16.5Z" fill="#0085FF"/>
</g>
<defs>
<clipPath id="clip0_1190_16051">
<rect width="24" height="24" fill="white"/>
</clipPath>
</defs>
</svg>
