<svg width="117" height="104" viewBox="0 0 117 104" fill="none" xmlns="http://www.w3.org/2000/svg">
<path d="M5.9751 47.2763L66.5762 5.46924L26.1961 97.634" stroke="white" stroke-width="10.431" stroke-linecap="round" stroke-linejoin="round"/>
<path d="M74.9196 24.7268C79.6785 25.8603 80.8119 27.2726 81.6975 33.9085C81.7448 34.269 82.2699 34.2641 82.3107 33.902C83.0495 27.2481 84.1519 25.8113 88.8847 24.5735C89.1962 24.492 89.1913 24.0484 88.8782 23.9733C84.1193 22.8399 82.9859 21.4276 82.1003 14.7916C82.053 14.4312 81.5279 14.4361 81.4871 14.7981C80.7483 21.452 79.6459 22.8888 74.9131 24.1266C74.6016 24.2082 74.6065 24.6518 74.9196 24.7268Z" fill="#A9FF76"/>
<path d="M88.0061 63.5724C88.9215 47.0456 75.7446 32.8771 58.5747 31.9261C41.4049 30.9752 26.744 43.602 25.8287 60.1288C24.9134 76.6556 38.0903 90.8241 55.2601 91.775C72.4299 92.7259 87.0908 80.0992 88.0061 63.5724Z" fill="black"/>
<path d="M90.4746 32.832L111.188 34.9342L109.177 54.7491" stroke="white" stroke-width="10.431" stroke-linecap="round" stroke-linejoin="round"/>
<path d="M26.8062 98.0612L110.893 36.1587" stroke="white" stroke-width="10.431" stroke-linecap="round" stroke-linejoin="round"/>
</svg>
