<svg width="24" height="24" viewBox="0 0 24 24" fill="none" xmlns="http://www.w3.org/2000/svg">
<g id="&#236;&#131;&#129;&#236;&#132;&#184;&#236;&#160;&#149;&#235;&#179;&#180;_active" clip-path="url(#clip0_1474_8921)">
<g id="Group 3620">
<g id="Group 3604">
<path id="Vector 1141" d="M18.2059 4.76583C19.2083 4.66305 20.1531 4.52806 21 4.35254V22.506C15.2777 24.2789 5.97885 22.7561 3.11768 22.506L3.11768 22.2349" stroke="#101922" stroke-width="1.4" stroke-linejoin="round"/>
</g>
<path id="Exclude" fill-rule="evenodd" clip-rule="evenodd" d="M18.7647 1.80656C18.7647 1.55818 18.6491 1.32365 18.4513 1.17081C18.2534 1.01796 17.9955 0.963844 17.752 1.02411C13.1913 2.15295 5.11976 2.59342 2.81495 2.59342C2.36487 2.59342 2 2.95452 2 3.39997V22.4629C2 22.8756 2.31475 23.2217 2.72943 23.265C4.01326 23.3991 6.98131 23.395 10.0472 23.1464C11.5879 23.0215 13.1738 22.8333 14.6041 22.5645C16.0212 22.2982 17.3394 21.9431 18.3131 21.4631C18.5898 21.3267 18.7647 21.0471 18.7647 20.7412V1.80656ZM13.5081 6.58088C13.6012 7.01669 13.3197 7.44468 12.8794 7.53682C12.2631 7.66577 11.2735 7.8131 10.3494 7.92744C9.43778 8.04025 8.51572 8.13038 8.05392 8.13038C7.60384 8.13038 7.23897 7.76927 7.23897 7.32383C7.23897 6.87838 7.60384 6.51728 8.05392 6.51728C8.39886 6.51728 9.22312 6.44115 10.1472 6.32681C11.0588 6.214 11.9942 6.07327 12.5422 5.95861C12.9826 5.86647 13.415 6.14507 13.5081 6.58088Z" fill="#101922"/>
</g>
</g>
<defs>
<clipPath id="clip0_1474_8921">
<rect width="24" height="24" fill="white"/>
</clipPath>
</defs>
</svg>
