<svg width="24" height="24" viewBox="0 0 24 24" fill="none" xmlns="http://www.w3.org/2000/svg">
<g id="&#236;&#131;&#129;&#236;&#132;&#184;&#236;&#160;&#149;&#235;&#179;&#180;_active">
<g id="Group 3604">
<path id="Vector 1141" d="M17.5 5.36978C18.3969 5.27782 19.2422 5.15704 20 5V21.2425C14.88 22.8289 6.56 21.4664 4 21.2425L4 21" stroke="#101922" stroke-width="1.4" stroke-linejoin="round"/>
</g>
<path id="Exclude" fill-rule="evenodd" clip-rule="evenodd" d="M18 2.72166C18 2.49942 17.8965 2.28959 17.7195 2.15283C17.5426 2.01607 17.3118 1.96765 17.0939 2.02157C13.0133 3.03159 5.79137 3.42569 3.72917 3.42569C3.32646 3.42569 3 3.74878 3 4.14734V21.2037C3 21.5729 3.28162 21.8826 3.65265 21.9213C4.80134 22.0413 7.45696 22.0376 10.2002 21.8152C11.5787 21.7034 12.9976 21.5351 14.2773 21.2946C15.5453 21.0562 16.7247 20.7386 17.5959 20.3091C17.8435 20.187 18 19.9369 18 19.6631V2.72166ZM13.2967 6.99378C13.38 7.38372 13.1282 7.76665 12.7342 7.8491C12.1828 7.96447 11.2973 8.09629 10.4705 8.1986C9.65486 8.29953 8.82985 8.38017 8.41667 8.38017C8.01396 8.38017 7.6875 8.05708 7.6875 7.65852C7.6875 7.25996 8.01396 6.93687 8.41667 6.93687C8.72529 6.93687 9.46279 6.86876 10.2896 6.76645C11.1053 6.66552 11.9422 6.53961 12.4325 6.43701C12.8265 6.35457 13.2134 6.60384 13.2967 6.99378Z" fill="#101922"/>
</g>
</svg>
